<svg width="16" height="18" viewBox="0 0 16 18" fill="none" xmlns="http://www.w3.org/2000/svg">
<path fill-rule="evenodd" clip-rule="evenodd" d="M4 5V4C4 2.93913 4.42143 1.92172 5.17157 1.17157C5.92172 0.421427 6.93913 0 8 0C9.06087 0 10.0783 0.421427 10.8284 1.17157C11.5786 1.92172 12 2.93913 12 4V5H15C15.552 5 16 5.449 16 6.007V16.008C16 17.108 15.105 18 14.006 18H1.994C1.4655 18 0.958626 17.7902 0.584736 17.4167C0.210846 17.0432 0.000530086 16.5365 0 16.008V6.008C0 5.45 0.445 5 1 5H4ZM5.2 5H10.8V4C10.8 3.25739 10.505 2.5452 9.9799 2.0201C9.4548 1.495 8.74261 1.2 8 1.2C7.25739 1.2 6.5452 1.495 6.0201 2.0201C5.495 2.5452 5.2 3.25739 5.2 4V5ZM4 6.2H1.2V16.008C1.2 16.444 1.556 16.8 1.994 16.8H14.006C14.2162 16.8 14.4179 16.7166 14.5667 16.5681C14.7156 16.4197 14.7995 16.2182 14.8 16.008V6.2H12V9H10.8V6.2H5.2V9H4V6.2Z" fill="black"/>
</svg>
